<?xml version="1.0" encoding="UTF-8" standalone="no"?>
<!DOCTYPE svg PUBLIC "-//W3C//DTD SVG 1.1//EN" "http://www.w3.org/Graphics/SVG/1.1/DTD/svg11.dtd">
<svg width="100%" height="100%" viewBox="0 0 96 96" version="1.1" xmlns="http://www.w3.org/2000/svg" xmlns:xlink="http://www.w3.org/1999/xlink" xml:space="preserve" xmlns:serif="http://www.serif.com/" style="fill-rule:evenodd;clip-rule:evenodd;stroke-linejoin:round;stroke-miterlimit:2;">
    <path d="M48,0C74.492,0 96,21.508 96,48C96,74.492 74.492,96 48,96C21.508,96 0,74.492 0,48C0,21.508 21.508,0 48,0ZM16,43.256L35.027,24.216L60.973,24.216L80,43.256L48,75.243L16,43.256ZM62.703,36.324C54.618,28.204 41.382,28.204 33.297,36.324L26.378,43.243L33.297,50.162C41.382,58.282 54.618,58.282 62.703,50.162L69.622,43.243L62.703,36.324ZM48,53.189C42.509,53.189 38.054,48.738 38.054,43.243C38.054,37.748 42.509,33.297 48,33.297C53.491,33.297 57.946,37.748 57.946,43.243C57.946,48.738 53.491,53.189 48,53.189ZM43.676,43.243C43.676,45.632 45.613,47.567 48,47.567C50.387,47.567 52.324,45.632 52.324,43.243C52.324,40.854 50.387,38.919 48,38.919C45.613,38.919 43.676,40.854 43.676,43.243Z"/>
</svg>
