<?xml version="1.0" encoding="UTF-8" standalone="no"?>
<!DOCTYPE svg PUBLIC "-//W3C//DTD SVG 1.1//EN" "http://www.w3.org/Graphics/SVG/1.1/DTD/svg11.dtd">
<svg width="100%" height="100%" viewBox="0 0 512 512" version="1.1" xmlns="http://www.w3.org/2000/svg" xmlns:xlink="http://www.w3.org/1999/xlink" xml:space="preserve" xmlns:serif="http://www.serif.com/" style="fill-rule:evenodd;clip-rule:evenodd;stroke-linejoin:round;stroke-miterlimit:2;">
    <path d="M256,0C397.29,0 512,114.71 512,256C512,397.29 397.29,512 256,512C114.71,512 0,397.29 0,256C0,114.71 114.71,0 256,0ZM387.703,155.151C362.286,130.315 327.518,115.009 289.174,115.009C211.307,115.009 148.183,178.133 148.183,256C148.183,333.867 211.307,396.991 289.174,396.991C327.517,396.991 362.286,381.685 387.703,356.849C357.385,396.383 309.669,421.872 256,421.872C164.391,421.872 90.128,347.609 90.128,256C90.128,164.391 164.391,90.128 256,90.128C309.669,90.128 357.385,115.617 387.703,155.151ZM183.812,336.68C204.146,356.548 231.96,368.793 262.635,368.793C324.929,368.793 375.428,318.294 375.428,256C375.428,193.706 324.929,143.207 262.635,143.207C231.96,143.207 204.146,155.452 183.812,175.32C208.066,143.694 246.239,123.303 289.174,123.303C362.461,123.303 421.872,182.713 421.872,256C421.872,329.287 362.461,388.697 289.174,388.697C246.239,388.697 208.066,368.306 183.812,336.68ZM355.523,256C355.523,310.965 310.965,355.523 256,355.523C201.035,355.523 156.477,310.965 156.477,256C156.477,201.035 201.035,156.477 256,156.477C310.965,156.477 355.523,201.035 355.523,256ZM322.349,256C322.349,292.643 292.643,322.349 256,322.349C219.357,322.349 189.651,292.643 189.651,256C189.651,219.357 219.357,189.651 256,189.651C292.643,189.651 322.349,219.357 322.349,256Z"/>
</svg>
